<svg width="15" height="17" viewBox="0 0 15 17" fill="none" xmlns="http://www.w3.org/2000/svg">
<path d="M14.3244 5.68958C13.4931 2.03208 10.3027 0.385418 7.5002 0.385418C7.5002 0.385418 7.5002 0.385418 7.49228 0.385418C4.6977 0.385418 1.49936 2.02417 0.668114 5.68167C-0.258136 9.76667 2.24353 13.2262 4.5077 15.4033C5.34686 16.2108 6.42353 16.6146 7.5002 16.6146C8.57686 16.6146 9.65353 16.2108 10.4848 15.4033C12.7489 13.2262 15.2506 9.77458 14.3244 5.68958ZM7.5002 9.65583C6.1227 9.65583 5.00645 8.53958 5.00645 7.16208C5.00645 5.78458 6.1227 4.66833 7.5002 4.66833C8.8777 4.66833 9.99395 5.78458 9.99395 7.16208C9.99395 8.53958 8.8777 9.65583 7.5002 9.65583Z" fill="#B4BCC4"/>
</svg>
