<svg width="7" height="13" viewBox="0 0 7 13" fill="none" xmlns="http://www.w3.org/2000/svg">
<path d="M0.7 0C0.885652 0 1.0637 0.0760912 1.19497 0.211534C1.32625 0.346977 1.4 0.530677 1.4 0.722222V12.2778C1.4 12.4693 1.32625 12.653 1.19497 12.7885C1.0637 12.9239 0.885652 13 0.7 13C0.514348 13 0.336301 12.9239 0.205025 12.7885C0.0737499 12.653 0 12.4693 0 12.2778V0.722222C0 0.530677 0.0737499 0.346977 0.205025 0.211534C0.336301 0.0760912 0.514348 0 0.7 0ZM6.3 0C6.48565 0 6.6637 0.0760912 6.79498 0.211534C6.92625 0.346977 7 0.530677 7 0.722222V12.2778C7 12.4693 6.92625 12.653 6.79498 12.7885C6.6637 12.9239 6.48565 13 6.3 13C6.11435 13 5.9363 12.9239 5.80502 12.7885C5.67375 12.653 5.6 12.4693 5.6 12.2778V0.722222C5.6 0.530677 5.67375 0.346977 5.80502 0.211534C5.9363 0.0760912 6.11435 0 6.3 0Z" fill="black"/>
</svg>
