<svg width="35" height="35" viewBox="0 0 35 35" fill="none" xmlns="http://www.w3.org/2000/svg">
<path d="M9.40627 14.802C12.3863 14.802 14.8021 12.3862 14.8021 9.40621C14.8021 6.42617 12.3863 4.01038 9.40627 4.01038C6.42623 4.01038 4.01044 6.42617 4.01044 9.40621C4.01044 12.3862 6.42623 14.802 9.40627 14.802Z" stroke="#66FC6C" stroke-width="3" stroke-linecap="round" stroke-linejoin="round"/>
<path d="M9.40627 30.9895C12.3863 30.9895 14.8021 28.5737 14.8021 25.5937C14.8021 22.6137 12.3863 20.1979 9.40627 20.1979C6.42623 20.1979 4.01044 22.6137 4.01044 25.5937C4.01044 28.5737 6.42623 30.9895 9.40627 30.9895Z" stroke="#66FC6C" stroke-width="3" stroke-linecap="round" stroke-linejoin="round"/>
<path d="M25.5938 30.9895C28.5738 30.9895 30.9896 28.5737 30.9896 25.5937C30.9896 22.6137 28.5738 20.1979 25.5938 20.1979C22.6137 20.1979 20.1979 22.6137 20.1979 25.5937C20.1979 28.5737 22.6137 30.9895 25.5938 30.9895Z" stroke="#66FC6C" stroke-width="3" stroke-linecap="round" stroke-linejoin="round"/>
<path d="M30.2188 4.78113L20.9686 14.0313M30.2188 14.0313L20.9686 4.78113" stroke="#45A254" stroke-width="3" stroke-linecap="round" stroke-linejoin="round"/>
</svg>
